<svg width="247" height="57" viewBox="0 0 247 57" fill="none" xmlns="http://www.w3.org/2000/svg">
<path d="M19.875 1.28125L34.0312 6L35.0625 4.15625C35.4375 3.48958 35.6979 3.08333 35.8438 2.9375C36.0104 2.77083 36.1979 2.6875 36.4062 2.6875C36.6146 2.6875 36.7812 2.76042 36.9062 2.90625C37.0521 3.05208 37.125 3.21875 37.125 3.40625C37.125 3.69792 36.875 4.27083 36.375 5.125L29.7812 16.5312L34.9375 16.3438C36.5625 16.2812 38.4479 16.5104 40.5938 17.0312C42.7604 17.5521 44.6146 18.3646 46.1562 19.4688C47.7188 20.5521 48.9375 21.8438 49.8125 23.3438C50.7083 24.8229 51.1562 26.4583 51.1562 28.25C51.1562 31.5417 49.7708 34.7812 47 37.9688C44.25 41.1354 39.3438 44.4792 32.2812 48C29.8438 47 27.0104 45.9479 23.7812 44.8438C17.8229 47.6979 12.9583 49.125 9.1875 49.125C6.5 49.125 4.42708 48.5417 2.96875 47.375C1.53125 46.1875 0.8125 44.8229 0.8125 43.2812C0.8125 41.6354 1.6875 40.1354 3.4375 38.7812C5.1875 37.4062 7.78125 36.7188 11.2188 36.7188C12.5729 36.7188 14.2604 36.8646 16.2812 37.1562L18.625 32.9062L14.2188 33.0938C13.1354 33.1146 11.6771 32.9688 9.84375 32.6562C8.01042 32.3229 6.5 31.7917 5.3125 31.0625C4.14583 30.3333 3.27083 29.4375 2.6875 28.375C2.10417 27.3125 1.8125 26.1979 1.8125 25.0312C1.8125 23.1771 2.46875 21.5312 3.78125 20.0938C4.61458 19.1771 5.98958 18.3542 7.90625 17.625L7.875 17.25C7.875 15.3125 8.72917 13.0938 10.4375 10.5938C12.1667 8.07292 15.3125 4.96875 19.875 1.28125ZM31.1875 11C27.9167 9.375 25.3646 8.29167 23.5312 7.75C21.6979 7.1875 20.0833 6.90625 18.6875 6.90625C16.7292 6.90625 15.1354 7.45833 13.9062 8.5625C12.6771 9.66667 12.0625 10.9583 12.0625 12.4375C12.0625 13.8958 12.5833 15.0938 13.625 16.0312C14.6875 16.9688 16.2812 17.4375 18.4062 17.4375C19.8229 17.4375 23.0104 17.1771 27.9688 16.6562L31.1875 11ZM24.5312 22.5938C21.8438 22.9271 19.2396 23.0938 16.7188 23.0938C13.8854 23.0938 11.875 22.7604 10.6875 22.0938C9.5 21.4271 8.61458 20.3854 8.03125 18.9688C6.53125 19.9271 5.78125 21.1146 5.78125 22.5312C5.78125 23.8229 6.36458 24.8854 7.53125 25.7188C9.07292 26.8021 11.7083 27.3438 15.4375 27.3438C17.1667 27.3438 19.3646 27.2292 22.0312 27L24.5312 22.5938ZM23.7812 26.875C28.7604 26.3125 32.2188 26.0312 34.1562 26.0312C36.8021 26.0312 38.8229 26.6354 40.2188 27.8438C41.6146 29.0312 42.3125 30.4583 42.3125 32.125C42.3125 33.5833 41.625 35 40.25 36.375C38.8958 37.75 36.0312 39.3854 31.6562 41.2812L37.8438 43.1875C40.5729 41.5 42.6771 39.6771 44.1562 37.7188C45.6354 35.7604 46.375 33.6042 46.375 31.25C46.375 29.7083 45.9062 28.1979 44.9688 26.7188C44.0521 25.2188 42.6354 24.0312 40.7188 23.1562C38.8021 22.2604 36.5938 21.8125 34.0938 21.8125C32.0729 21.8125 29.4896 22.0208 26.3438 22.4375L23.7812 26.875ZM17.7188 37.4062C19.7812 37.8229 21.4583 38.2083 22.75 38.5625C24.0625 38.9167 26.3854 39.625 29.7188 40.6875C34.3438 38.5208 36.6562 36.3646 36.6562 34.2188C36.6562 33.5521 36.3542 32.9479 35.75 32.4062C35.1667 31.8646 34.4167 31.5938 33.5 31.5938C32.375 31.5938 30.9896 31.7188 29.3438 31.9688C24.7604 32.5938 21.75 32.9062 20.3125 32.9062L17.7188 37.4062ZM21.6875 44.1875C16.3542 42.5833 12.0312 41.7812 8.71875 41.7812C7.01042 41.7812 5.65625 42.1562 4.65625 42.9062C3.96875 43.4062 3.625 44.0208 3.625 44.75C3.625 45.5208 3.96875 46.1354 4.65625 46.5938C5.73958 47.3438 7.3125 47.7188 9.375 47.7188C12.5417 47.7188 16.6458 46.5417 21.6875 44.1875ZM71.9375 5.1875L72.6875 6.0625C69.5833 8.16667 67.2708 10.4167 65.75 12.8125C63.7917 15.8958 62.8125 19.25 62.8125 22.875C62.8125 27.2708 64.2604 31.3333 67.1562 35.0625C68.4062 34.0417 69.1562 33.1875 69.4062 32.5C69.6562 31.7917 69.7812 29.875 69.7812 26.75V12.75L83.1562 1.59375C86.2812 2.82292 88.7396 3.625 90.5312 4C92.3229 4.35417 94.4271 4.53125 96.8438 4.53125H97.5625L98.0625 5.65625L92.9062 10.5938C89.4271 10.2188 85.5 8.94792 81.125 6.78125L81.4688 42.4688L82.6562 42.5C85.6562 42.5 88.3854 41.9896 90.8438 40.9688C93.3229 39.9479 95.8854 38.2917 98.5312 36L99.4688 36.9062C97.5312 39.5729 95.625 41.6458 93.75 43.125C91.8958 44.6042 89.6562 45.7917 87.0312 46.6875C84.4062 47.5625 81.8021 48 79.2188 48C75.3854 48 71.7708 47.0729 68.375 45.2188C65 43.3646 62.3542 40.7083 60.4375 37.25C58.5208 33.7917 57.5625 30.2292 57.5625 26.5625C57.5625 22.0417 58.9167 17.8542 61.625 14C63.75 10.9792 67.1875 8.04167 71.9375 5.1875ZM79.7188 6.59375L76.0625 9.75V24C76.0625 25.7708 75.9688 26.9479 75.7812 27.5312C75.5729 28.3021 75.0938 29.125 74.3438 30C72.8229 31.7708 70.6979 33.7917 67.9688 36.0625C69.6354 37.9167 71.4167 39.3438 73.3125 40.3438C75.2292 41.3229 77.4688 41.9792 80.0312 42.3125L79.7188 6.59375ZM143.938 0.65625L144.531 2.09375C143.031 2.82292 141.917 3.55208 141.188 4.28125C140.479 4.98958 139.979 5.79167 139.688 6.6875C139.396 7.5625 139.25 8.875 139.25 10.625C139.25 11.1875 139.26 11.9375 139.281 12.875L139.812 36.2188C139.854 38.7812 140.125 40.4583 140.625 41.25C140.979 41.8125 141.406 42.0938 141.906 42.0938C142.51 42.0938 143.448 41.4896 144.719 40.2812L145.625 41.4375L139.812 46.4062L137.875 48C136.229 47.2292 135.052 46.2083 134.344 44.9375C133.656 43.6667 133.271 41.6354 133.188 38.8438L121.094 48C114.365 43.5625 109.781 41.3438 107.344 41.3438C106.74 41.3438 106.229 41.5312 105.812 41.9062C105.5 42.1771 105.344 42.5625 105.344 43.0625C105.344 43.6042 105.542 44.1979 105.938 44.8438C106.458 45.7188 106.719 46.2917 106.719 46.5625C106.719 46.9583 106.573 47.3021 106.281 47.5938C105.99 47.8646 105.635 48 105.219 48C104.698 48 104.281 47.7917 103.969 47.375C103.51 46.8125 103.281 46.0833 103.281 45.1875C103.281 44.1875 103.562 43.0729 104.125 41.8438C104.708 40.5938 105.562 39.2396 106.688 37.7812C106.917 37.4688 107.125 37.1771 107.312 36.9062L111.781 30.8125C108.76 28.5417 106.635 26.3646 105.406 24.2812C104.198 22.1979 103.594 19.8646 103.594 17.2812C103.594 14.2812 104.354 11.5 105.875 8.9375C107.417 6.375 109.719 4.35417 112.781 2.875C115.865 1.39583 119.031 0.65625 122.281 0.65625C127.26 0.65625 132.062 2.38542 136.688 5.84375C137.812 4.65625 138.896 3.6875 139.938 2.9375C140.979 2.16667 142.312 1.40625 143.938 0.65625ZM128.562 7.90625C125.938 6.61458 123.323 5.96875 120.719 5.96875C117.948 5.96875 115.344 6.58333 112.906 7.8125C110.469 9.02083 108.646 10.5938 107.438 12.5312C106.229 14.4479 105.625 16.4167 105.625 18.4375C105.625 22.7083 107.938 26.4896 112.562 29.7812L123 15.5C121.438 14.6458 120.031 14.2188 118.781 14.2188C117.052 14.2188 115.635 15.0312 114.531 16.6562C114.323 16.9896 114.115 17.1562 113.906 17.1562C113.781 17.1562 113.656 17.0938 113.531 16.9688C113.427 16.8438 113.375 16.6875 113.375 16.5C113.375 15.8542 113.698 14.9583 114.344 13.8125C115.01 12.6667 115.979 11.7396 117.25 11.0312C118.542 10.3229 119.896 9.96875 121.312 9.96875C122.771 9.96875 124.427 10.3229 126.281 11.0312L128.562 7.90625ZM132.594 11.125C131.99 10.4583 131.583 10.0312 131.375 9.84375C131.229 9.69792 130.708 9.3125 129.812 8.6875L116.156 27.3125H132.969L132.594 11.125ZM112.781 31.875L109.969 35.7812L125.844 42.625L133.219 37.1875L133.094 31.875H112.781ZM181.438 1.5625L192.219 15.2812L182.188 22.0625C185.042 23.7708 187.323 25.8021 189.031 28.1562C190.76 30.4896 192.104 33.5104 193.062 37.2188C193.5 39.0104 193.948 40.3229 194.406 41.1562C194.719 41.6979 195.302 42.3438 196.156 43.0938L199.281 40.4375L200.344 41.5625L192.781 48C191.26 47.0417 190.167 46.0208 189.5 44.9375C189.021 44.2083 188.146 41.7396 186.875 37.5312C186.188 35.3021 185.312 33.3958 184.25 31.8125C183.188 30.2292 182.062 29.0417 180.875 28.25C179.688 27.4375 178.094 26.7188 176.094 26.0938L173.969 27.4688V40.4375C175.865 41.0625 177.865 41.9479 179.969 43.0938L183.219 40.2188L184.219 41.3125L176.094 48C173.135 46.5 170.562 45.4479 168.375 44.8438C166.208 44.2396 164.021 43.9375 161.812 43.9375C159.042 43.9375 156.375 44.3958 153.812 45.3125C152.458 45.8125 150.948 46.7083 149.281 48L148.438 47.25C150.5 44.6042 152.573 42.6562 154.656 41.4062C156.76 40.1562 159.333 39.3125 162.375 38.875V37.4688C162.375 35.4479 162.115 33.8021 161.594 32.5312C161.073 31.2396 160.125 29.8958 158.75 28.5C157.375 27.0833 155.927 25.9271 154.406 25.0312C153.427 24.4688 152.052 23.9062 150.281 23.3438V22.0625C151.969 21.4375 154.042 20.2917 156.5 18.625L162.375 14.6875C162.375 12 162.188 10.0833 161.812 8.9375C161.438 7.77083 160.708 6.80208 159.625 6.03125C158.542 5.26042 157.333 4.875 156 4.875C155.188 4.875 154.448 5 153.781 5.25C153.115 5.5 152.292 5.96875 151.312 6.65625L150.281 5.90625C151.906 4.23958 153.365 3.11458 154.656 2.53125C155.969 1.92708 157.583 1.625 159.5 1.625C161.646 1.625 163.427 2.05208 164.844 2.90625C166.281 3.76042 167.354 4.92708 168.062 6.40625C168.479 7.30208 168.719 8.59375 168.781 10.2812L181.438 1.5625ZM177.281 6.21875L173.969 8.4375V25.7188L186.188 17.5625L177.281 6.21875ZM172.531 9.4375L168.781 12.0625V39.125C170.031 39.3125 171.281 39.5938 172.531 39.9688V9.4375ZM162.375 16.4375L155.438 21.125C156.75 21.75 157.833 22.375 158.688 23C159.562 23.625 160.792 24.6667 162.375 26.125V16.4375ZM203.344 4.53125L202.688 3.34375C204.146 2.13542 205.323 1.35417 206.219 1C207.135 0.625 208.198 0.4375 209.406 0.4375C211.094 0.4375 212.677 0.78125 214.156 1.46875C215.635 2.13542 216.792 3.02083 217.625 4.125C218.271 4.97917 218.812 6.26042 219.25 7.96875C222.312 5.69792 224.917 4.125 227.062 3.25C229.208 2.375 231.271 1.9375 233.25 1.9375C236.958 1.9375 240.167 3.47917 242.875 6.5625C245.604 9.64583 246.969 13.9062 246.969 19.3438C246.969 22.4479 246.448 25.3854 245.406 28.1562C244.385 30.9271 242.854 33.2083 240.812 35C238.792 36.7708 236.417 38.0521 233.688 38.8438C230.958 39.6146 228.625 40 226.688 40L213.438 39.7188C211.438 39.7188 209.562 40.0521 207.812 40.7188C206.083 41.3646 204.823 42.2396 204.031 43.3438C203.24 44.4479 202.844 45.6458 202.844 46.9375C202.844 48.5833 203.448 49.9896 204.656 51.1562C205.885 52.3229 207.365 52.9062 209.094 52.9062C210.031 52.9062 211 52.7708 212 52.5C213 52.2292 214.906 51.4896 217.719 50.2812C221.781 48.5104 225.146 47.625 227.812 47.625C230.562 47.625 232.74 48.2708 234.344 49.5625C235.552 50.5625 236.156 51.8646 236.156 53.4688C236.156 54.4271 235.875 55.1875 235.312 55.75C234.771 56.3333 234.094 56.625 233.281 56.625C232.594 56.625 232 56.3646 231.5 55.8438C231.021 55.3229 230.781 54.6562 230.781 53.8438C230.781 53.1979 231.01 52.4688 231.469 51.6562C231.76 51.1562 231.906 50.8021 231.906 50.5938C231.906 50.3021 231.792 50.0625 231.562 49.875C231.208 49.625 230.75 49.5 230.188 49.5C229.479 49.5 228.719 49.6458 227.906 49.9375C227.094 50.2292 225.615 50.9896 223.469 52.2188C220.427 53.9479 218.031 55.1146 216.281 55.7188C214.531 56.3229 212.938 56.625 211.5 56.625C208.688 56.625 206.302 55.6979 204.344 53.8438C202.385 51.9896 201.406 49.8125 201.406 47.3125C201.406 44.8958 202.333 42.8333 204.188 41.125C206.062 39.3958 208.958 38.4167 212.875 38.1875C212.896 37.75 212.906 37.4271 212.906 37.2188C212.906 34.8438 212.396 32.7812 211.375 31.0312C210.354 29.2812 209.021 27.9792 207.375 27.125C206.333 26.5625 204.99 26.2708 203.344 26.25V25.125C204.26 24.9792 205.031 24.9062 205.656 24.9062C207.01 24.9062 208.24 25.0938 209.344 25.4688C210.448 25.8438 211.625 26.4792 212.875 27.375C212.917 26.7708 212.938 26.2396 212.938 25.7812C212.938 23.2396 212.146 21.1354 210.562 19.4688C209 17.8021 207.135 16.9688 204.969 16.9688C204.469 16.9688 203.823 17.0208 203.031 17.125V15.9062C204.385 15.1979 205.708 14.8438 207 14.8438C207.958 14.8438 208.844 14.9792 209.656 15.25C210.49 15.5208 211.562 16.0729 212.875 16.9062C212.896 15.8229 212.906 14.9062 212.906 14.1562C212.906 10.1771 212.292 7.39583 211.062 5.8125C209.833 4.22917 208.354 3.4375 206.625 3.4375C205.562 3.4375 204.469 3.80208 203.344 4.53125ZM224.188 15.25C225.479 16.3958 226.656 17.1875 227.719 17.625C228.781 18.0625 229.979 18.2812 231.312 18.2812C232.771 18.2812 234.104 18.0312 235.312 17.5312C236.521 17.0104 237.896 16.0625 239.438 14.6875C238.812 12.75 238.146 11.2604 237.438 10.2188C236.354 8.63542 235.094 7.45833 233.656 6.6875C232.24 5.89583 230.76 5.5 229.219 5.5C227.802 5.5 226.125 5.94792 224.188 6.84375V15.25ZM222.719 7.59375C221.531 8.30208 220.375 9.0625 219.25 9.875V38.1875C220.021 38.2083 220.604 38.2188 221 38.2188L222.719 38.1875V7.59375ZM224.188 26.5938C225.771 25.5312 227.135 24.8021 228.281 24.4062C229.448 23.9896 230.688 23.7812 232 23.7812C233.333 23.7812 234.573 23.9896 235.719 24.4062C236.885 24.8021 238.24 25.5312 239.781 26.5938C240.115 24.7812 240.281 23.1875 240.281 21.8125C240.281 20.4167 240.115 18.5938 239.781 16.3438C238.01 17.6771 236.469 18.5938 235.156 19.0938C233.865 19.5729 232.479 19.8125 231 19.8125C229.875 19.8125 228.792 19.625 227.75 19.25C226.729 18.8542 225.542 18.1667 224.188 17.1875V26.5938ZM224.188 38.1875C227.208 38.125 229.667 37.75 231.562 37.0625C233.479 36.3542 235.042 35.3333 236.25 34C237.458 32.6458 238.521 30.7188 239.438 28.2188C237.917 27.0729 236.615 26.3021 235.531 25.9062C234.469 25.5104 233.281 25.3125 231.969 25.3125C230.635 25.3125 229.385 25.5208 228.219 25.9375C227.073 26.3542 225.729 27.1146 224.188 28.2188V38.1875Z" fill="#D9D9D9"/>
</svg>
